/* XPM */
static char *output_onlinepngtools1665049759[] = {
/* columns rows colors chars-per-pixel */
"44 44 64 1 ",
"  c None",
". c black",
"X c #010101",
"o c #020202",
"O c gray1",
"+ c gray2",
"@ c #060606",
"# c #070707",
"$ c gray3",
"% c #090909",
"& c gray4",
"* c #0C0C0C",
"= c gray5",
"- c gray6",
"; c gray7",
": c #202020",
"> c #232323",
", c #272727",
"< c #2C2C2C",
"1 c #313131",
"2 c #323232",
"3 c #343434",
"4 c gray22",
"5 c #4E4E4E",
"6 c gray38",
"7 c gray40",
"8 c DimGray",
"9 c gray43",
"0 c #747474",
"q c gray55",
"w c gray57",
"e c #989898",
"r c gray60",
"t c gray62",
"y c #A0A0A0",
"u c #A5A5A5",
"i c #A7A7A7",
"p c gray67",
"a c gray68",
"s c #AEAEAE",
"d c #C3C3C3",
"f c gray79",
"g c gray80",
"h c gray81",
"j c #D2D2D2",
"k c gray84",
"l c gray86",
"z c gainsboro",
"x c #DDDDDD",
"c c gray87",
"v c #E4E4E4",
"b c gray90",
"n c #E9E9E9",
"m c #EAEAEA",
"M c #ECECEC",
"N c #F1F1F1",
"B c gray96",
"V c gray97",
"C c #F8F8F8",
"Z c #F9F9F9",
"A c gray99",
"S c #FDFDFD",
"D c #FEFEFE",
"F c white",
/* pixels */
"                 D........D                 ",
"              t..............r              ",
"            ....................            ",
"          &......................@          ",
"         ..........................         ",
"       l.........................p..c       ",
"      D..........D........D......D...D      ",
"     l..D..c..........................c     ",
"     ..................................     ",
"    ........;.................D.........    ",
"   &........................D............   ",
"   ..........D.@.............M...........   ",
"  ...........1..N.........:r..............  ",
"  ...............DD.....DDw.:.............  ",
" t.............a........CD.7..............w ",
" .............8....D.D.DD.................. ",
" ...................D...a...C.............. ",
"D.....D..........D...................D.....D",
"...............i...5.,...9..................",
"................j........d.D................",
".................c....3.....D...............",
"................k...........................",
"............4.......-..........g............",
"...........8....C.....D.D..-...D............",
"............jb...N.....aD.......D...........",
"...............D......b....@...1.D.0...DD...",
"D.D.D.Dm................yB..........-D..@..D",
" ...D.............D........................ ",
" ...D..............D6...................... ",
" r..D.................DmD.................q ",
"  .................D..D...................  ",
"  ..D...............DDD...................  ",
"   ....................&.................   ",
"   &................D.m..................   ",
"    .................f..................    ",
"     ..................................     ",
"     c...............Dj...............c     ",
"      D..........D........D..........D      ",
"       l............................c       ",
"         ..............<...........         ",
"          ........................          ",
"            ....................            ",
"              w..............q              ",
"                 D........D                 "
};
