/* XPM */
static char *_6afab3c6bcc49c9e2864f4bb5c97c223jvroITNSmUjJnVM[] = {
/* columns rows colors chars-per-pixel */
"64 64 256 2 ",
"   c black",
".  c #010101",
"X  c #020202",
"o  c gray1",
"O  c #040404",
"+  c gray2",
"@  c #060606",
"#  c #070707",
"$  c gray3",
"%  c #090909",
"&  c gray4",
"*  c #0B0B0B",
"=  c #0C0C0C",
"-  c gray5",
";  c #0E0E0E",
":  c gray6",
">  c #101010",
",  c #111111",
"<  c gray7",
"1  c #131313",
"2  c gray8",
"3  c #151515",
"4  c #161616",
"5  c gray9",
"6  c #181818",
"7  c #191919",
"8  c gray10",
"9  c #1B1B1B",
"0  c gray11",
"q  c #1D1D1D",
"w  c #1E1E1E",
"e  c gray12",
"r  c #202020",
"t  c gray13",
"y  c #222222",
"u  c #232323",
"i  c gray14",
"p  c #252525",
"a  c gray15",
"s  c #272727",
"d  c #282828",
"f  c gray16",
"g  c #2A2A2A",
"h  c gray17",
"j  c #2C2C2C",
"k  c #2D2D2D",
"l  c gray18",
"z  c #2F2F2F",
"x  c gray19",
"c  c #313131",
"v  c #323232",
"b  c gray20",
"n  c #343434",
"m  c #353535",
"M  c gray21",
"N  c #373737",
"B  c gray22",
"V  c #393939",
"C  c #3A3A3A",
"Z  c gray23",
"A  c #3C3C3C",
"S  c gray24",
"D  c #3E3E3E",
"F  c #3F3F3F",
"G  c gray25",
"H  c #414141",
"J  c gray26",
"K  c #434343",
"L  c #444444",
"P  c gray27",
"I  c #464646",
"U  c gray28",
"Y  c #484848",
"T  c #494949",
"R  c gray29",
"E  c #4B4B4B",
"W  c #4C4C4C",
"Q  c gray30",
"!  c #4E4E4E",
"~  c gray31",
"^  c #505050",
"/  c #515151",
"(  c gray32",
")  c #535353",
"_  c gray33",
"`  c #555555",
"'  c #565656",
"]  c gray34",
"[  c #585858",
"{  c gray35",
"}  c #5A5A5A",
"|  c #5B5B5B",
" . c gray36",
".. c #5D5D5D",
"X. c gray37",
"o. c #5F5F5F",
"O. c #606060",
"+. c gray38",
"@. c #626262",
"#. c gray39",
"$. c #646464",
"%. c #656565",
"&. c gray40",
"*. c #676767",
"=. c #686868",
"-. c DimGray",
";. c #6A6A6A",
":. c gray42",
">. c #6C6C6C",
",. c #6D6D6D",
"<. c gray43",
"1. c #6F6F6F",
"2. c gray44",
"3. c #717171",
"4. c #727272",
"5. c gray45",
"6. c #747474",
"7. c gray46",
"8. c #767676",
"9. c #777777",
"0. c gray47",
"q. c #797979",
"w. c gray48",
"e. c #7B7B7B",
"r. c #7C7C7C",
"t. c gray49",
"y. c #7E7E7E",
"u. c gray50",
"i. c #808080",
"p. c #818181",
"a. c gray51",
"s. c #838383",
"d. c #848484",
"f. c gray52",
"g. c #868686",
"h. c gray53",
"j. c #888888",
"k. c #898989",
"l. c gray54",
"z. c #8B8B8B",
"x. c gray55",
"c. c #8D8D8D",
"v. c #8E8E8E",
"b. c gray56",
"n. c #909090",
"m. c gray57",
"M. c #929292",
"N. c #939393",
"B. c gray58",
"V. c #959595",
"C. c gray59",
"Z. c #979797",
"A. c #989898",
"S. c gray60",
"D. c #9A9A9A",
"F. c #9B9B9B",
"G. c gray61",
"H. c #9D9D9D",
"J. c gray62",
"K. c #9F9F9F",
"L. c #A0A0A0",
"P. c gray63",
"I. c #A2A2A2",
"U. c gray64",
"Y. c #A4A4A4",
"T. c #A5A5A5",
"R. c gray65",
"E. c #A7A7A7",
"W. c gray66",
"Q. c #A9A9A9",
"!. c #AAAAAA",
"~. c gray67",
"^. c #ACACAC",
"/. c gray68",
"(. c #AEAEAE",
"). c #AFAFAF",
"_. c gray69",
"`. c #B1B1B1",
"'. c #B2B2B2",
"]. c gray70",
"[. c #B4B4B4",
"{. c gray71",
"}. c #B6B6B6",
"|. c #B7B7B7",
" X c gray72",
".X c #B9B9B9",
"XX c gray73",
"oX c #BBBBBB",
"OX c #BCBCBC",
"+X c gray74",
"@X c gray",
"#X c gray75",
"$X c #C0C0C0",
"%X c #C1C1C1",
"&X c gray76",
"*X c #C3C3C3",
"=X c gray77",
"-X c #C5C5C5",
";X c #C6C6C6",
":X c gray78",
">X c #C8C8C8",
",X c gray79",
"<X c #CACACA",
"1X c #CBCBCB",
"2X c gray80",
"3X c #CDCDCD",
"4X c #CECECE",
"5X c gray81",
"6X c #D0D0D0",
"7X c gray82",
"8X c #D2D2D2",
"9X c LightGray",
"0X c gray83",
"qX c #D5D5D5",
"wX c gray84",
"eX c #D7D7D7",
"rX c #D8D8D8",
"tX c gray85",
"yX c #DADADA",
"uX c gray86",
"iX c gainsboro",
"pX c #DDDDDD",
"aX c gray87",
"sX c #DFDFDF",
"dX c gray88",
"fX c #E1E1E1",
"gX c #E2E2E2",
"hX c gray89",
"jX c #E4E4E4",
"kX c gray90",
"lX c #E6E6E6",
"zX c #E7E7E7",
"xX c gray91",
"cX c #E9E9E9",
"vX c #EAEAEA",
"bX c gray92",
"nX c #ECECEC",
"mX c gray93",
"MX c #EEEEEE",
"NX c #EFEFEF",
"BX c gray94",
"VX c #F1F1F1",
"CX c gray95",
"ZX c #F3F3F3",
"AX c #F4F4F4",
"SX c gray96",
"DX c #F6F6F6",
"FX c gray97",
"GX c #F8F8F8",
"HX c #F9F9F9",
"JX c gray98",
"KX c #FBFBFB",
"LX c gray99",
"PX c #FDFDFD",
"IX c #FEFEFE",
"UX c white",
/* pixels */
"                . X X .       X . . .         O +       O O         O O     . @ o       . X . . X       O @                     ",
"                  + .     % @     X + X @ - &     # 7 d b F Q ] ' W F b d 8 $     o @               o +       %                 ",
"                      O X     @ @     # @   ; N  .o.X._ K n j g f h b K _ o.O...Z ,   @ $     : o X         . .                 ",
"                      O O     .   O $ * j } &.` q >         . .           . , w ` &.[ f % $ @     # X     ; &                   ",
"                o O       % X   X 6 H +._ i           o % % .       $ % o           i _ +.G 4       + .     X O                 ",
"                @     & .     q Z _ R 5     = @ O # * - , q l A Z k 0 , - = $ + # - o   9 Q ' A 4     O +     $                 ",
"                o   . : @   w )  .u     # .   o a A [ -.&.[ Y F S U ] &.-.{ S s       X     t  .^ s O   @ o                     ",
"                  =     + U @.^ f $     - w I 5.( Z 9 O       X .       O 0 A ) 6.I w ; o   2 B 1.O.m o   + %                   ",
"    =     %   o   +     ' o.2 N e.  - q #.@.l ,                                 $ p 2.` d # , f.$.1 ] ~ =   =   o   %     =     ",
"-     o     X   @ O # ' [ .   ; 4.V J ,.w X   +                                   # @ t O.K l o./ : + ^ '   X     X     o     - ",
"  X   *     2   X   1.D   ,   + ^ a.S   >   =                                         =   N i.Q 5   ;   J 3.+ .   2     *   X   ",
"  % .   . o &   = ' A X .   & ~ <.6.: $     X                                   =       6 * q.*.Q o   o o D {     & o .   . %   ",
"X @     & *   . ~ `   + * X ] U 8 5.1.W @ @   O                                   @ o % J v.w.- ^ ..@ *     { W .   * &     @ X ",
"o   o   #     I }   ,     X._ o   E l...o.u   *                                 o   w w.5.L.Q     ! } o   4 O X.I     #   o   o ",
"    $ =     a $.3 #   = ( J . o + n >.$.p } D                                   @ S -.U z.@.i o     H @.$     % $.a     = $     ",
"+     O   < ! n   O   W ~ . +     - ] | P 3 L o.                                { } w } ~ ;.=     +   { L   # # n ! <   O     + ",
"  X O     T Q     * x o.#     o @   ) I <.z   L =.0 @ $   @ -     :     = = , 7.R o J +.,.S o $ X     O @.c $     W Y     + o   ",
"  @     5 ( a . X * ,.* & %   X   o n ! o.u.g   0 %.K +         #   ,     B d.i   J d.I #.h X       $ # ; <.$ O   p ( 5     #   ",
"  O     Y P . . X ^ D       =     o ; o.C x.<.9 # & X.X.8 @   +       - _ @.& + d i.t.l *.,       :       D W O   . P U     +   ",
"      : %.w     u 1.  <     <   + o   ] d o.F.t.o $   S 7.l O .   - 9 w.! & @ 6 M.n.G S ` .   =   3     3   >.p     q %.:       ",
"  .   S !     @ } g O   @     X   o . M K V v.B.f.X   o 2 *.`     S <.6 $   w V.S.:.y ;.t X X     X   o   + a  .+     ! S   X . ",
"  $   &.8   . u |   <   . -           t o.= J a.Y.q.7     1 ! ` X...a     v G.}.4.f 2 e.o $ #       -     1   ..y .   8 &.  $   ",
"X X 6 @.    $ R g =   O   # o   @     < | % o O.s.C.$.< & . - r.,.y   o 6 h.c.0.Y o i } X + X +   @ @   #   % j T #     @.6 o o ",
"$   Z P     > $.& O   o +     *   &     E J   i z.U.T._ & T q.p 4 &.| y >.W.R.6.- # } v       + %     X @   . = #.:     P Z   % ",
"+   ] q   + d ~                 O     O p O.    @.u.&.I.M.! , b d   ( ^.b.@.D.V X   0.*   ;                     ~ d +   q ]   + ",
". @ +.-   O G V                 . +     * #.9 $ q M.6Xn.!.n 1 ) ..5 %.V.Z.:X6.=   n X.  $     *                 V G O   - +.@ . ",
"  4 $.    + ..8                 &     ;   W m   & Y Z.).uXb.u +. .: ;XyX#Xm.J &   } Z   ;   o X                 8 ..+     $.4   ",
"  s ]     = -.+                   %   X - Z K v o./ n.;XQ.sX;.-.p.F.kXZ.|. .^ ;.l +.>   @   3                   + -.=     ] s   ",
". N F $   6 @.                  @   -     0 <.Y Z   ( `..XtXI.P.Z.~.-X:XT.r X f q.E o =     *                     @.6   $ F N . ",
"X L k ;   a _                   >   O   # B 6.j % = @.z.XXbXU.%.:.qXzXb.S.G   : j u.X.#   =                       _ a   ; k L X ",
"  W g #   c T                     1 o 6 *.o.x [ _ 5.q.XX;XhX}.3X|.{.zX+X;Xs.w.' !   U y.y   1                     T c   # g W   ",
"  ~ z     M I                   $ X l 6.C :   ! >.i.=./.;XhXiXzXhXcXwX3Xk.;.p.X.F -   k q.G   o                   I M     z ~   ",
"X ) l   o F F     $     : o   # o { X.j d h k T t.-.R ).,XkXMX0XuXvX0X5XA.L q.3.N c b t e ` X.0 o   X #     +     W f X # q Q % ",
"  U x     s Y + $ @ % %     # e <.[ m W x.S.x.K.b.C.`.~.:XyXCX%X5XDX>X:X}.H.H.k.V.z.A.k.I p L &.j # X o   @ 1   % J x   O k !   ",
"X L A X # 8 } o   .     % - x 9.V I H f *   < U z.@X,Xg.>XwXuXcXvXhX6X'.H.}.-Xi.H 1   + h J Z f :.D -   .     o $ S c     Z !   ",
"  m F   & < %.  @   #   = X.d.^ ~ N q 8 c T V 2 . @ L d.,.K.uXAXvX,XJ.[ b.V +   , J Y u 7 l G R Y :.) 8 & % o $ X [ s     J G o ",
"  x ~   @ & <.O   o o i &.8._ F Y ^ #.1.0.l.b.r.$.` [ }.#.@.G.6X5X1.%.=.^.[ E 3.a.V.f.>.<.%.Q I F K :.-.s @ @   # 6.%     Q d o ",
"  f X.       .7 & . M <.} N F / G 9.S.e.{ &.9.,.8.M._ M._.S.I.dXuXc.(.[.;.<.C.9.5.,.[ X.h.c.%.P Y / z B >.H   * : @.    % | 4   ",
"  * _ ; 6 @ ! x $ } X.y ; > 1 i . h m 4 : f j 2 b C I n.`.aXmX5X*XAXjX!.:...L f < u e 3 p b y $ g + - & * ..4.% b Y 2 , 1 O.& . ",
"X   [ V +.E 7.*.k.m.3./ } #.} ] O.{ _ ..&.} _ o.{ *.;.e.,.%X7X0XwX7XA.:.e.} { o.} X.o.....X. .} | ' | O. .$.a.J.-.Q X.V 0 {   X ",
"-   G ^ N.L...3.M a i c d t h x g g g g g g g g y C .._ u.S.rX=X,X5Xy.M.Q <.5 g g g g g g g g g c d t h z i f m 2.2 f.b J G   $ ",
"  , 9 3./ j M ( j &   @   @ @                     3 ..( e.h.cXsXmXeXq.*.' E $ o                   @ @   #   % j Q > T j X.9 o # ",
"  . + X.j     a [ X >   X -                       X Q R #.2.hXaXjX;X4.J *.i @                       =     <    .q =   B ..  #   ",
";   X h E o   @ ] c O   =     # X X X X X X X X -   g ] ' 6.@X.X|.^.6.I <.% %   X X X X X X X X . o   O   @ s ... %   [ M       ",
"  $   < %., ;   9 4.  %     $                       # ,.{ k.K.^.~.L.3...{     X                   <     <   =.t     q O., &     ",
"  & o   P P &   o ` G   + o =   X X X X X X X X   X   } ( 9.b.4X#Xv.} *.v       X X X X X X X X   < X   X H ~ #     / C X O O   ",
"@   O   3 %.6   O % <.; $ $   .                 $ #   s ' R p.hX,X,.H *.= @ X                   .   $ $ ; <.$ +   8 ' <     +   ",
"  &   X . F / & X + v %..       . . . . . . . .     + $ 6.x 6.qX>X` V =.  . X   . . . . . . . . X     O @.c $   + T P $ o   o O ",
"@     o   , ! m     o W ^ & . .         O     #     . + _ ) d.`..X[ 9.g     % @ #     +         . . & ^ W o     c W 1   $     X ",
"    $ *     a %.6 +   % _ Y   . O   * *     $   .       h ..Y K.l.D -.,           % .   & $   + .   Y _ %   + 6 ;.f     + +   . ",
"O   X   #     U '   >   o %.Y o   $       % o   o       $ >.d k.$.A '   + @   .   O *       #   o Y %.o   >   ' P     %   o   X ",
"o #     % *   X Y |     > @ ~ W   * #   + X       O   .   o.P #.' ] B   o $   %     X @   @ *   W ~ @ >     | Y     - :     O   ",
"  % .     o &   & #.G   X   # ( >.%   <     $ %   O     . h 2.l W &.:       . O % #     <   % >.( #   X   G #.&   = .       *   ",
"  X   &     2     . 2.F   >   O x 3.D   o 4       #     +   8.9 T `   o o   O       2 X   G 4.z O   >   F 2..     3     &   X . ",
";     X     o       X ..`   #     o _ q.h   @ . + o   . +   ` H } c     *   +   . O   g e.] +     #   ` ..X           + %     # ",
"    =     $   O   O   = ^ ] 2   O O   0 { +.c : .     O . o z 4.<.1 @   *   . . > z ..[ q   @ O   2 ] ^ =   O   #   #     &     ",
"                  - +   @ I { S   .     X u W &.] n 6 #     & n.+.+       8 l ] ;.Q y .     .   S { I @   + -                   ",
"                +     $     q ^ ( a     o X . + f J ..$.@.X.G d.6.D ( | | $.F f # .   X   X a ^ ^ q     $     +                 ",
"                      & .     7 J ` E 0     $ * . * = + * p g 8.' h c r % -   . * #     q W ' H 7     . &                       ",
"                  .     o = .   X , A &.| y     .     @ O O = O.O.,       #         r } *.D < O   . = o     .                   ",
"                $             $   o # = x O.-.` d :   @     $ o.y + X +     @ t ) =.o.x = $ O   $             $                 ",
"                +     O .     $ &           2 N | +.} X.J b g U M l d b / ;.=.| m 2           = $     . O     +                 ",
"                  . X   O %       @ O     % %     = 3 j c Y Q ( A ( / H l 6 +     & =     X +       % O   X .                   ",
"                O             #     . o       o + -   @   @     + o     @     * X       .       #             O                 "
};
