/* XPM */
static char *_b00ef488ae54e87d3ab1e0475a9e5c5tfk7rdwGpD8XTMf4[] = {
/* columns rows colors chars-per-pixel */
"78 44 253 2 ",
"   c #1A0600",
".  c #250800",
"X  c #251B05",
"o  c #38170E",
"O  c #1A2508",
"+  c #35280B",
"@  c #2B2414",
"#  c #252A14",
"$  c #2B2C15",
"%  c #29261A",
"&  c #2C2C1B",
"*  c #262919",
"=  c #322D1C",
"-  c #382B17",
";  c #2B3214",
":  c #2D321B",
">  c #273515",
",  c #323415",
"<  c #353B15",
"1  c #32331D",
"2  c #3B331C",
"3  c #353B1B",
"4  c #3A3C1D",
"5  c #3A3815",
"6  c #29250C",
"7  c #342E22",
"8  c #3F2B20",
"9  c #2F3321",
"0  c #353422",
"q  c #3A3623",
"w  c #363923",
"e  c #3B3A24",
"r  c #3D3C2A",
"t  c #373528",
"y  c #2E2E21",
"u  c #471017",
"i  c #48271A",
"p  c #44381D",
"a  c #56351B",
"s  c #492A12",
"d  c #693B1A",
"f  c #6C1C2E",
"g  c #462C25",
"h  c #592828",
"j  c #483A25",
"k  c #59362A",
"l  c #6B3D2F",
"z  c #753736",
"x  c #6C2F36",
"c  c #2E4913",
"v  c #354C13",
"b  c #3A431D",
"n  c #3B4D1B",
"m  c #374917",
"M  c #3B5315",
"N  c #3C541B",
"B  c #3C591C",
"V  c #365418",
"C  c #344B0E",
"Z  c #3D4423",
"A  c #3D4B21",
"S  c #3D4129",
"D  c #3E5321",
"F  c #3E5A23",
"G  c #3E5C28",
"H  c #3F6221",
"J  c #41441E",
"K  c #454D1E",
"L  c #42541D",
"P  c #435B1D",
"I  c #495D1D",
"U  c #435516",
"Y  c #47611E",
"T  c #444424",
"R  c #424C23",
"E  c #43442A",
"W  c #484929",
"Q  c #544629",
"!  c #435224",
"~  c #445D23",
"^  c #4A5D24",
"/  c #4B532A",
"(  c #4B5D2A",
")  c #475628",
"_  c #535A2A",
"`  c #4B4933",
"'  c #584B36",
"]  c #565835",
"[  c #4D5A32",
"{  c #6A4B39",
"}  c #655739",
"|  c #715435",
" . c #6E472C",
".. c #456224",
"X. c #4A6325",
"o. c #4C6A26",
"O. c #466429",
"+. c #4B642A",
"@. c #4D6A2C",
"#. c #47692B",
"$. c #516325",
"%. c #52642B",
"&. c #526B2D",
"*. c #576B2B",
"=. c #55722E",
"-. c #4D6531",
";. c #4D6C32",
":. c #4A6A34",
">. c #526433",
",. c #546D32",
"<. c #5A6D33",
"1. c #586839",
"2. c #547133",
"3. c #5A7334",
"4. c #5C7439",
"5. c #4E7131",
"6. c #62783A",
"7. c #63623A",
"8. c #7D3443",
"9. c #6C5C43",
"0. c #775A46",
"q. c #764347",
"w. c #5A7541",
"e. c #77654B",
"r. c #716C4C",
"t. c #565540",
"y. c #8F2F3A",
"u. c #874436",
"i. c #8E5939",
"p. c #99633F",
"a. c #893548",
"s. c #983848",
"d. c #903048",
"f. c #A83B55",
"g. c #A93153",
"h. c #B03E60",
"j. c #86484D",
"k. c #855C4A",
"l. c #974858",
"z. c #98545C",
"x. c #90514E",
"c. c #A1484B",
"v. c #A3584A",
"b. c #A8485D",
"n. c #B6435B",
"m. c #B1535D",
"M. c #86664A",
"N. c #996449",
"B. c #886A54",
"V. c #976D52",
"C. c #88755A",
"Z. c #977559",
"A. c #A86A56",
"S. c #A97858",
"D. c #AA7352",
"F. c #995462",
"G. c #BA4966",
"H. c #AA596A",
"J. c #B85869",
"K. c #BA5973",
"L. c #AC5269",
"P. c #937263",
"I. c #9A7867",
"U. c #9B6565",
"Y. c #B76369",
"T. c #A37767",
"R. c #AB6873",
"E. c #BD6A7C",
"W. c #B96677",
"Q. c #A97673",
"!. c #B97779",
"~. c #AA696A",
"^. c #C14E73",
"/. c #C75877",
"(. c #C5536F",
"). c #C26B7D",
"_. c #C7677A",
"`. c #C77677",
"'. c #D26C7B",
"]. c #B2845D",
"[. c #A9845D",
"{. c #9C8168",
"}. c #AA876A",
"|. c #B78767",
" X c #B7966A",
".X c #A88775",
"XX c #B78679",
"oX c #BA9876",
"OX c #BAA377",
"+X c #988054",
"@X c #C89A79",
"#X c #C6897B",
"$X c #C8A778",
"%X c #BB6A82",
"&X c #D25C81",
"*X c #CC6483",
"=X c #C46D82",
"-X c #CA6D84",
";X c #CB6C88",
":X c #D46D8B",
">X c #D36986",
",X c #C47384",
"<X c #CB7386",
"1X c #CD7489",
"2X c #CB7B8C",
"3X c #C77888",
"4X c #D3748D",
"5X c #D9728E",
"6X c #D37B8D",
"7X c #D67889",
"8X c #D86D92",
"9X c #CC7D91",
"0X c #D57591",
"qX c #DA7492",
"wX c #D57B91",
"eX c #DA7C94",
"rX c #D97E99",
"tX c #E47C99",
"yX c #E3708D",
"uX c #E37EA0",
"iX c #BA8682",
"pX c #BC9186",
"aX c #BAA684",
"sX c #C8878A",
"dX c #D5828D",
"fX c #C79B85",
"gX c #CE8191",
"hX c #CF8D91",
"jX c #D48395",
"kX c #DB8395",
"lX c #D6839C",
"zX c #DD839B",
"xX c #D68A9A",
"cX c #DC8A9D",
"vX c #D58996",
"bX c #CC9594",
"nX c #DB939A",
"mX c #E2859D",
"MX c #E2899E",
"NX c #E58298",
"BX c #E1969D",
"VX c #C8A885",
"CX c #D1A987",
"ZX c #D0B58C",
"AX c #DB88A1",
"SX c #DC93A2",
"DX c #D591A0",
"FX c #E48BA2",
"GX c #EB8CA5",
"HX c #E885A2",
"JX c #F289A7",
"KX c #E794A8",
"LX c #F293AF",
/* pixels */
"; 1 q j & & y * & 7 7 % = y * 7 g u l.E.).`.sXfXfX{.a  .].@XD.].M.a p 5 T e 9 w = j 2 5 5 L U C < / 4 2 [ 1 w 1 r e w w 1 1 1 1 e T 4 1 1 2 4 & q r 1 & % % ",
": 1 q q 1 & 9 y 7 7 % & y & 7 % % q.%XR.`.`.#XfXZ.Q M.V.D.].].].].Z.| + , , w : 0 q 2 2 p R n < , W < W ] 1 w w r w 0 w w w e 0 e e 1 , 1 1 e = 1 w 0 & & % ",
", , 2 r : : 9 0 7 7 @ 9 y y q o g R.,X).dX`.#XT.J }.OX .d ].].D.S.Z.M.C.' 2 q 0 2 q q q j W W < 4 W 3 ] ` 3 1 t r r t 0 t q t e r 2 1 $ 1 r q 1 0 r q 7 % % ",
": ; e e 1 & 0 0 7 @ % y t 7 - i F.%X=X<X7XdX!. .M.}.| i.S.D.#XA.i.d a D.}.Q - = q = j q j ` ` j Z S r ] S w 0 w S r w 0 1 0 0 0 e 1 = = 1 e e 1 0 t t & % * ",
"1 : e S w 3 1 = % # * > w = o z E.%X1X0XwXdX!. .Z.| +X X X].|.D.S. XV. .M.e.2 q 0 0 e 0 7 ' t.E j S ` ` 0 r e E r r t = = y 0 0 e 0 0 1 0 r q q t r 0 % % % ",
": , w S w w = @ @ O * # 0 = i z.%X-X0X:XeXxX`.x.Z.+X X$XZX$X|.#X@XA.T.T. .C.p - 1 3 S : % ` ' ` ` S ] S & r e r t q 0 & & 0 0 0 w w t 1 1 r 1 1 t 7 7 * % % ",
": : S S 9 w 1 @ @ @ * # 9 8 h H.W.:XqX1XzXzX`.A.V.].OX$X$X$X].@XV..XT.a s P.B.6 1 ; S > O w ` E ` S ` w : 1 1 w w 0 & # & 1 0 & r 0 e $ 1 j 1 = = q 1 % % * ",
"1 w w w : 1 2 @ @ @ : : y q 8.H._.-X0XqXzXkXdXY.D.|.$X X@X@X X|.B.|     i e..Xp 1 > S > O : e E e 1 3 e 1 # 1 e S w : # # : 1 & e , 2 $ : S , $ $ 0 1 & % * ",
"t e e e q 1 = 2 - = w : 0 8 j.L.W.<X1XwXrXeXkX`.v.D.]. X X XoXVXe.    o a { B.{ , , 4 # O ; 1 E ; ; , 3 , 3 5 e T 4 ; # ; 3 3 : 1 < , , 5 b ; ; , ; : ; # # ",
"e t w w e q 2 2 - = w : t g q.l.Y.).wXwXeXzX7X`.v.p.p.D.$XVXoXVXaXC.C.B.XXT.k.0.j 5 1 3 > $ , W 4 4 Z Z Z A Z R R Z b 3 b A Z b T b b b Z A b 4 b b 4 4 < 3 ",
"0 1 w e S E 2 - 2 2 e w t g x z.b.W.2X4XeXeX1X`.Y.v.N.A.]. X$XOXaXZXVX$XfX}.S.}.e.a E e w $ & e 4 b R R R ! ! / ! R R ! R R D D ! R R R R ! R R n R R A Z n ",
"w $ e e T W < , j 2 4 w w j k j.j.R.,X2XtXeXeX<X`.Y.v.v.A.|.}. XOXOXVXZXCXCXpXT.P.' E e w $ : w b b J R R ! ! ) D ! ! ! ! D ! D ! L ! ! N ! L ! D K ! A A ! ",
"1 ; Z e T / < 3 T J 5 4 e j g { q.L.3X-XrX0XrXAX_.Y.m.c.v.A.S.]. X X X@XCXCX}.e.{ T E 1 1 $ w 3 b c b n A K n N n N N n D D n n n n D n n N n n n n n n n A ",
"< < 4 J A R m b / T < 4 4 4 p k j.l.wX-X0X0XrXKXNXJ.J.J.u.y.v.S.}.].S.D.M.| a J + 4 E 3 3 > 3 b m A m m m m n n n v m V n N D N M M L B n U N N N N U N N D ",
"b m R R R N N L / K J n R W j g q.l.=X0X0XrXrXAXLXHX_.G.m.c.u.N.D.i.i. .a s .   , W ) A n b n D ) D D D n N N B V N N N B F F F ~ ! ~ ~ ~ ^ ~ ~ ~ ~ ) ~ ! ~ ",
") / / _ ) D ~ ^ I _ / ) / [ _ 2 x 8.a.3X0X1XAX%X;XJXJX/.J.J.v.y.u.u.| l a a + 6 [ 1.) D ( O.~ ( ( ( ( ( ( ^ ( ..) ~ ~ ( ..G ..O.~ ^ +.X.+.+.O.X.( +.+.~ ~ ~ ",
"+.+.+.( %.~ +.~ ~ %.+.~ ( +.( ] g x u l.9X%XF.%Xh.n.tXJX&X(.K.J.y.z z l l s X J >.+.%.^ #.#.( %.( ..X.$._ ^ *.$.$.^ +.+.+.o.O.+.X...~ ..+.+.+.+.+.+.+.+.+.~ ",
"~ X.X...+...+...~ +.+.( O.( ^ ( j - o h R.L.8.h.G.y.g.&XJXqXK.(.(.m.s.z z s + ] ] X.%...;.o.( +.O.#.o.$.$.%.$._ $.X.&.@.O.#.O.o.X.X.X.X.+.+.+.+.+.+.+.+.+.+.",
"+.X.X.X.X.+...+.+.+.O.+.+...~ >.] X . o F.K.h.d.^.(.n.b.K.eXuX&X(.n.m.m.u.y. .} <.$.&.+.&.@.+.%.#.5.@.o.O.@.@...%.O.2.&.X.X.@.&.o.+.%.@.+.@.+.+.+.+.+.-.+.+.",
"@.+.+.@...2.X.&.,.-.+.+.+.~ +.-.>.[ X . x K.h.G.f.>XtXqX*X/.qXtXyX'._._.Y.`..X} 7.>.<.X.,.@.&.2.2.#.;.;.@.:.@.o.@.@.2.5.o.&.3.&.X.&.@.@.,.&.,.@.+.+.-.,.+.+.",
"X.X.X.@.X.2.+.&.+.+.+.~ ~ ~ ( #.:.4./ - h W.b.b.G.JXLXJXJXtX:X5X5XtXyX7X6XsX}./ ,.#.&...=.Y o.&.;.O.;.;.@.#.#.5.5.o.5.@.@.=.<.*.%.X.X.o.&.&.&.X.X.+.&.@.+.X.",
"+.X.X.+.+.@.....O.+.+.~ +.+.+.#.5...>.9.k j.J.g.5XqX>X5XGXJXmXJXtXHXJXNX7X`.Z.' ( O.X...o.Y o.o.%.~ +.@.O.#.O.2.@.#.o.O.o.*.*.o.o.X.X.X.X.o.X.X.+.@.&.+.X.X.",
"@.@.+.@.o.~ P M ~ ~ ~ ~ +.~ ~ X.@.<.O.1.] i H._.mXwXzXNXwX5X:X/./.K./.yXtX6XI.' -.H X.Y =.Y Y $.%.^ *._ ^ &.+.&.o.@.X.I o.&...X.X.X.X...X.X.o.X.X.o.&.X...@.",
"+.&.+.@.@.~ ~ M ~ B ~ ( +.B M P I Y #.-.r.{ W.MXzXzXmX4X-X-X_.:X4X5X/.(./.Y.x.] -.H Y P o.=.o.$.*._ *.I P *.*.%.o.&.X.P X.&...+.X.X.o.....Y ..X...X.@.X.X.+.",
"X.+.+.~ @.~ &.P ~ +.~ ~ ,.~ B ^ U M ..1.t.P.xXwXAXSXKXKXFXzXMXFXAXAXtX<X'.).0.} 1.( ^ P $.<.*._ $.$.=.o.$.*.*.*.*.I *.I $.~ @.;.B ~ @.@.P X.X.o.X.=.o.&.B o.",
"~ X.&.%.<.~ &.+.~ ~ +.X.+.~ +.+.Y P ! 1.r.iXxXAXKXKXLXLXFXcXmXzXzX9X6XeX>XY.k.9.1._ ^ %.<.6.3.X.Y Y o.=.=.o.Y Y $.U _ <.<.P O.;.V ~ %.3.o.X.X.=.o.&.&.&.+.P ",
"&.+.&.&.<.P ..~ ~ M ~ ~ X.^ +.B ..^ 1.C.pXbXAXAXKXKXKXKXKXKXSXSXcXLXkX4X>XH.z.' w.1.( ,.2.5.;.G Y Y H 5.o.Y B *.$.$.*.6.+...;.@.~ ~ X.3.X.P Y o...*.@.@.+.P ",
"X.~ +.+.&.~ I L B N ~ +.( +.( B ( 1.C.sXnXcXAXrXlXAXAXAXKXKXKXSXzX4X4XtX7XJ.U.{ 9.9.} 1.] ) [ ( Y =.5.Y H =.Y #.6.$.3.*.~ ( +.#.#.+.B +.X.B Y Y P o.P @.O.( ",
"P ~ X.X.+.P L B m ~ >.+.^ ~ B _ 1.r.iXsX6X0XAXrXrXlXlXzXzXFXSXSXLXFXeX1XeX7X<XiXpXpX.X}.B.9.e.9.Q _ %.~ +.w...o.6.P *.I I L B +.O.O.B ~ o.X.=.X.Y X...@.+.) ",
"P ^ %.X.P N M B B &.,.+.X.~ v >.r.Q.!.).qXtXrXlXuXAXHXzXzXcXSXDXSXSXKXcX4XwXjX).nXBXBXnXbXsXbXiXB.| } R ) 1.H #.3.L &.I ^ I B X.N ~ ~ +.+.X.2.&.&.I &.+.#.N ",
"L B ~ ^ ~ B N P ( &.&.+.<.,.M _ I.%X=X:XtXuXrXAXAXuXHXHXmXAXcXcXSXKXSXAXcXrX1XMXkXkXkXBXSXSXSXvXsXXXI.{ W ) ~ v ;.&.=.X.$.X.I X.N N +.....I &.=.5.P 2.+...N ",
"X.M B ~ ~ P v N B ! +.,.4.4.! } Q.E.=XtX:X8XrXlXuXuXHXzXmXcXcXxXvXSXDXDXcXFXwX7XmX7XNXBXFXKXFXKXFXgXsXXXI.j / ( 2.4.X.*.$.M I &.~ N O.O.O.P &.6.&.M 2.&.G ..",
"~ ~ O.F N V ~ D ) +...B 5.<.} 0.R.=X1X;X0XqXrXkXmXHXFXFXmXFXzXSXnXnXSXcXSXcXxXjXkXkXeXmXKXMXMXBXKXlX9X,XgXT.Q } %.O.Y #.B X.^ 4.G G :.-.G H ..4.Y o.Y M @.3.",
"U ,.F V 2.N ) +.>.^ M C Y ~ 9.~.E.-X1X1X4X4XwXNXNXNXMXFXGXFXcXjXjXvXBXcXcXcXcXxXjXjX7XkXKXMXMXBXGXrX8X;X<X2XQ.0./ L V H @.@.( ! ( #.G 2.B B ..6.P o.o.I ..X.",
"U <.c V :.B +.O.( ) I M Y M 9.Q.E.,X-X-X;X4XqXeXmXmXmXMXFXFXFXcX2X2XxXcXvXxXvXjXjXeX1XjXGXMXMXMXcXmX;X*X>X>XdXW.M._ < B 5.#.^ M *.*.C *.F P o.=.I +.X.I B ..",
"L <.V O.O.....V ! ( <.I o.K M.Q.W.-X-X=X<X4XwXzXeXmXFXFXFXMXkXlXwX3X2XSXvXxXjXjXjXjX<X7XMXMXkXkX6XjX).*X/.(.>X:XsXB.J ,.:.n v N *.Y C $.5.P *.X.~ %.X.~ N ..",
"M <.+.,.@.2.V v ) ( <.P o._ P.R.E.=X=X=X;X4X6XqXrXzXmXFXFXFXFXFXjX-X,XjXjXgX3X2XjXjX<X1XzXmXjX7X7X'.(.(.(./.&X/.zXiXe.} / m ) ~ I U I Y =.Y 3.2.I X.~ +.! ~ ",
"L P :.;.#.=.#.V +.~ P M @.} T.R.E.).=X=X1X4X4XwXNXNXzXNXFXFXzXkXkX<X=XwXvXgX9XgXjXgX).<XkXmX6X<X'.(.(.n.^./././.5XgX%Xk.' J ( ( *.$.$.$.#.5.5.5.B N ~ -.-.+.",
"%.C @.#.V o.o.B X.L v M ^ } P.H.%X=XE.=X=X1X4XqXwXNXmXmXkXwX1X%X-X-XE.%X2X9X9X2XgX2X).,XjXkX1X_.m.f.f.h.^.^.^.8XqX*X1XsX!.{ Q / 3.6...O...#.V F N c B -.1.+.",
"^ P F O.Y ..V V ^ ! M U L } R.H.%X=XW.E.-X1X1XwXeXeXzXwX1XwXzXLXGXLXFX2XgX9X3X3X2X2X=X-X6X6X=XW.c.y.s.n.h.^.>X8X*X*X;X1XsXsXP.9.7.r.<.1.@...c N G c F -.>.n ",
"%.4.B B ..Y B Y +.,.v L _ e.U.H.K.H.L.E.-X1X4X4XqXzX4X4XmXGXFXGXLXmXeXzX9X3X,X3X9X3X3X=X2X1X1Xb.f y.f.f.f./.>X_.>X8X:X:X7XgXgXsX{.r.} / / 1.c -.G D G ( M M ",
"X.6...B B B M M 1.<.v U _ e.F.L.l.l.l.H.W.-X1X1XwXzXeXeXFXGXFXGXeXeXeXzXlX9X9X3X9X3X1XE.2X1X=Xa.f a.d.y.G./.G.>X*X:X8X8XqXqX7XgXhXpXP.' Q ] Z R w.:.G ~ n V ",
"$.4.@...o.M C V >.+.v m _ } z.F.l.F.H.W.).-X4X4XqXeXrXrXFXFXHXzXeXrXkXAXAXvX9X3X,X3X3XW.3X2XL.u f f 8.l.l.n.G.G././.yXyXqXqXqX5X1X2XhXiXP.} E [ >.D D F N v ",
"*.&.#.@.6.M C M m N v C I } x.z.8.s.H.H.W.E.-X1XwX0XrXuXAXtXzXrXmXHXFXAXcXAXwX3X,X,X,XE.,X3Xb.u f x 8.a.s.d.g.n.^.^./.>X8X8X8X8XqX-X3XsXbX.Xr.b Z m D ~ ~ c "
};
